<mxfile host="Electron" agent="Mozilla/5.0 (Windows NT 10.0; Win64; x64) AppleWebKit/537.36 (KHTML, like Gecko) draw.io/27.0.9 Chrome/134.0.6998.205 Electron/35.4.0 Safari/537.36" version="27.0.9">
  <diagram name="Страница — 1" id="SICL8SayFNmG26vCsWE3">
    <mxGraphModel dx="1554" dy="914" grid="1" gridSize="10" guides="1" tooltips="1" connect="1" arrows="0" fold="1" page="1" pageScale="1" pageWidth="827" pageHeight="1169" math="0" shadow="0">
      <root>
        <mxCell id="0" />
        <mxCell id="1" parent="0" />
        <mxCell id="HrjvAKk2yr_Z9xb3Scgv-1" value="" style="rounded=0;whiteSpace=wrap;html=1;fillColor=none;dashed=1;" parent="1" vertex="1">
          <mxGeometry x="120" y="280" width="160" height="400" as="geometry" />
        </mxCell>
        <mxCell id="HrjvAKk2yr_Z9xb3Scgv-6" value="Sources" style="rounded=0;whiteSpace=wrap;html=1;strokeColor=none;fontSize=24;" parent="1" vertex="1">
          <mxGeometry x="120" y="270" width="120" height="10" as="geometry" />
        </mxCell>
        <mxCell id="HrjvAKk2yr_Z9xb3Scgv-10" value="" style="rounded=0;whiteSpace=wrap;html=1;fillColor=none;dashed=1;" parent="1" vertex="1">
          <mxGeometry x="320" y="280" width="440" height="400" as="geometry" />
        </mxCell>
        <mxCell id="HrjvAKk2yr_Z9xb3Scgv-11" value="Data Warehouse" style="rounded=0;whiteSpace=wrap;html=1;strokeColor=none;fontSize=24;" parent="1" vertex="1">
          <mxGeometry x="440" y="270" width="200" height="10" as="geometry" />
        </mxCell>
        <mxCell id="HrjvAKk2yr_Z9xb3Scgv-12" value="" style="rounded=0;whiteSpace=wrap;html=1;fillColor=none;dashed=1;" parent="1" vertex="1">
          <mxGeometry x="840" y="200" width="280" height="560" as="geometry" />
        </mxCell>
        <mxCell id="HrjvAKk2yr_Z9xb3Scgv-13" value="Consume" style="rounded=0;whiteSpace=wrap;html=1;strokeColor=none;fontSize=24;" parent="1" vertex="1">
          <mxGeometry x="840" y="170" width="120" height="10" as="geometry" />
        </mxCell>
        <mxCell id="HrjvAKk2yr_Z9xb3Scgv-14" value="&lt;font style=&quot;font-size: 20px; color: rgb(0, 0, 0);&quot;&gt;&lt;b&gt;Bronze Layer&lt;/b&gt;&lt;/font&gt;" style="rounded=0;whiteSpace=wrap;html=1;fillColor=#ffe6cc;strokeColor=#d79b00;" parent="1" vertex="1">
          <mxGeometry x="340" y="300" width="130" height="20" as="geometry" />
        </mxCell>
        <mxCell id="HrjvAKk2yr_Z9xb3Scgv-16" value="" style="rounded=0;whiteSpace=wrap;html=1;fillColor=none;strokeColor=#d79b00;" parent="1" vertex="1">
          <mxGeometry x="340" y="330.5" width="130" height="335.5" as="geometry" />
        </mxCell>
        <mxCell id="HrjvAKk2yr_Z9xb3Scgv-17" value="&lt;font style=&quot;font-size: 20px; color: rgb(0, 0, 0);&quot;&gt;&lt;b&gt;Silver&amp;nbsp;&lt;/b&gt;&lt;/font&gt;&lt;b style=&quot;color: rgb(0, 0, 0); font-size: 20px; background-color: transparent;&quot;&gt;Layer&lt;/b&gt;" style="rounded=0;whiteSpace=wrap;html=1;fillColor=#f5f5f5;strokeColor=#666666;fontColor=#333333;" parent="1" vertex="1">
          <mxGeometry x="479" y="300" width="130" height="20" as="geometry" />
        </mxCell>
        <mxCell id="HrjvAKk2yr_Z9xb3Scgv-18" value="&lt;font style=&quot;font-size: 20px; color: rgb(0, 0, 0);&quot;&gt;&lt;b&gt;Gold&lt;/b&gt;&lt;/font&gt;&lt;b style=&quot;color: rgb(0, 0, 0); font-size: 20px; background-color: transparent;&quot;&gt;&amp;nbsp;Layer&lt;/b&gt;" style="rounded=0;whiteSpace=wrap;html=1;fillColor=#fff2cc;strokeColor=#d6b656;" parent="1" vertex="1">
          <mxGeometry x="620" y="300" width="130" height="20" as="geometry" />
        </mxCell>
        <mxCell id="HrjvAKk2yr_Z9xb3Scgv-19" value="" style="rounded=0;whiteSpace=wrap;html=1;fillColor=none;strokeColor=#666666;fontColor=#333333;" parent="1" vertex="1">
          <mxGeometry x="479" y="330.5" width="130" height="335.5" as="geometry" />
        </mxCell>
        <mxCell id="HrjvAKk2yr_Z9xb3Scgv-20" value="" style="rounded=0;whiteSpace=wrap;html=1;fillColor=none;strokeColor=#d6b656;" parent="1" vertex="1">
          <mxGeometry x="620" y="330.5" width="130" height="335.5" as="geometry" />
        </mxCell>
        <mxCell id="HrjvAKk2yr_Z9xb3Scgv-21" value="&lt;b&gt;&lt;font style=&quot;font-size: 16px;&quot;&gt;CRM&lt;/font&gt;&lt;/b&gt;" style="image;aspect=fixed;html=1;points=[];align=center;fontSize=12;image=img/lib/azure2/general/Folder_Blank.svg;" parent="1" vertex="1">
          <mxGeometry x="150" y="320" width="69" height="56.00000000000001" as="geometry" />
        </mxCell>
        <mxCell id="HrjvAKk2yr_Z9xb3Scgv-22" value="" style="verticalLabelPosition=bottom;html=1;verticalAlign=top;align=center;strokeColor=none;fillColor=#00BEF2;shape=mxgraph.azure.cloud_services_configuration_file;pointerEvents=1;" parent="1" vertex="1">
          <mxGeometry x="204.5" y="339.25" width="27.5" height="36.75" as="geometry" />
        </mxCell>
        <mxCell id="HrjvAKk2yr_Z9xb3Scgv-27" value="&lt;b&gt;&lt;font style=&quot;font-size: 16px;&quot;&gt;ERP&lt;/font&gt;&lt;/b&gt;" style="image;aspect=fixed;html=1;points=[];align=center;fontSize=12;image=img/lib/azure2/general/Folder_Blank.svg;" parent="1" vertex="1">
          <mxGeometry x="150" y="470" width="69" height="56.00000000000001" as="geometry" />
        </mxCell>
        <mxCell id="HrjvAKk2yr_Z9xb3Scgv-28" value="" style="verticalLabelPosition=bottom;html=1;verticalAlign=top;align=center;strokeColor=none;fillColor=#00BEF2;shape=mxgraph.azure.cloud_services_configuration_file;pointerEvents=1;" parent="1" vertex="1">
          <mxGeometry x="204.5" y="488.25" width="27.5" height="36.75" as="geometry" />
        </mxCell>
        <mxCell id="HrjvAKk2yr_Z9xb3Scgv-35" value="" style="endArrow=none;html=1;rounded=0;" parent="1" edge="1">
          <mxGeometry width="50" height="50" relative="1" as="geometry">
            <mxPoint x="234.5" y="570" as="sourcePoint" />
            <mxPoint x="134.5" y="570" as="targetPoint" />
          </mxGeometry>
        </mxCell>
        <mxCell id="HrjvAKk2yr_Z9xb3Scgv-36" value="&lt;b&gt;Object type&lt;/b&gt;: CSV File&lt;div&gt;&lt;b&gt;Interface&lt;/b&gt;: Files in Folders&lt;/div&gt;" style="text;html=1;align=center;verticalAlign=middle;whiteSpace=wrap;rounded=0;" parent="1" vertex="1">
          <mxGeometry x="125" y="570" width="150" height="70" as="geometry" />
        </mxCell>
        <mxCell id="HrjvAKk2yr_Z9xb3Scgv-38" value="" style="html=1;verticalLabelPosition=bottom;align=center;labelBackgroundColor=#ffffff;verticalAlign=top;strokeWidth=2;strokeColor=#d79b00;shadow=0;dashed=0;shape=mxgraph.ios7.icons.data;fillColor=#ffe6cc;" parent="1" vertex="1">
          <mxGeometry x="376.5" y="390" width="57" height="69.1" as="geometry" />
        </mxCell>
        <mxCell id="HrjvAKk2yr_Z9xb3Scgv-39" value="" style="html=1;verticalLabelPosition=bottom;align=center;labelBackgroundColor=#ffffff;verticalAlign=top;strokeWidth=2;strokeColor=#666666;shadow=0;dashed=0;shape=mxgraph.ios7.icons.data;fillColor=#f5f5f5;fontColor=#333333;" parent="1" vertex="1">
          <mxGeometry x="515.5" y="390" width="57" height="69.1" as="geometry" />
        </mxCell>
        <mxCell id="HrjvAKk2yr_Z9xb3Scgv-40" value="" style="html=1;verticalLabelPosition=bottom;align=center;labelBackgroundColor=#ffffff;verticalAlign=top;strokeWidth=2;strokeColor=#d6b656;shadow=0;dashed=0;shape=mxgraph.ios7.icons.data;fillColor=#fff2cc;" parent="1" vertex="1">
          <mxGeometry x="656.5" y="390" width="57" height="69.1" as="geometry" />
        </mxCell>
        <mxCell id="HrjvAKk2yr_Z9xb3Scgv-42" value="" style="shape=singleArrow;whiteSpace=wrap;html=1;fillColor=#dae8fc;strokeColor=#6c8ebf;" parent="1" vertex="1">
          <mxGeometry x="280" y="450" width="60" height="60" as="geometry" />
        </mxCell>
        <mxCell id="HrjvAKk2yr_Z9xb3Scgv-43" value="" style="shape=singleArrow;whiteSpace=wrap;html=1;fillColor=#dae8fc;strokeColor=#6c8ebf;" parent="1" vertex="1">
          <mxGeometry x="440" y="450" width="60" height="60" as="geometry" />
        </mxCell>
        <mxCell id="HrjvAKk2yr_Z9xb3Scgv-44" value="" style="shape=singleArrow;whiteSpace=wrap;html=1;fillColor=#dae8fc;strokeColor=#6c8ebf;" parent="1" vertex="1">
          <mxGeometry x="596.5" y="450" width="60" height="60" as="geometry" />
        </mxCell>
        <mxCell id="HrjvAKk2yr_Z9xb3Scgv-45" value="" style="shape=singleArrow;whiteSpace=wrap;html=1;fillColor=#dae8fc;strokeColor=#6c8ebf;" parent="1" vertex="1">
          <mxGeometry x="740" y="450" width="110" height="60" as="geometry" />
        </mxCell>
        <mxCell id="HrjvAKk2yr_Z9xb3Scgv-46" value="Raw Data" style="text;html=1;align=center;verticalAlign=middle;whiteSpace=wrap;rounded=0;" parent="1" vertex="1">
          <mxGeometry x="375" y="555" width="60" height="30" as="geometry" />
        </mxCell>
        <mxCell id="HrjvAKk2yr_Z9xb3Scgv-47" value="Cleansing" style="text;html=1;align=center;verticalAlign=middle;whiteSpace=wrap;rounded=0;" parent="1" vertex="1">
          <mxGeometry x="510" y="555" width="60" height="30" as="geometry" />
        </mxCell>
        <mxCell id="HrjvAKk2yr_Z9xb3Scgv-48" value="Business ready data" style="text;html=1;align=center;verticalAlign=middle;whiteSpace=wrap;rounded=0;" parent="1" vertex="1">
          <mxGeometry x="640" y="555" width="90" height="30" as="geometry" />
        </mxCell>
        <mxCell id="EO1bN0PTtrRYNR4O2HtU-1" value="BI Reporting" style="rounded=0;whiteSpace=wrap;html=1;fontSize=20;" vertex="1" parent="1">
          <mxGeometry x="879.4" y="299.25" width="200" height="40" as="geometry" />
        </mxCell>
        <mxCell id="EO1bN0PTtrRYNR4O2HtU-2" value="Ad-Hoc&lt;div&gt;SQL-Queries&lt;/div&gt;" style="rounded=0;whiteSpace=wrap;html=1;fontSize=20;" vertex="1" parent="1">
          <mxGeometry x="880" y="468.88" width="200" height="58.25" as="geometry" />
        </mxCell>
        <mxCell id="EO1bN0PTtrRYNR4O2HtU-3" value="Machine Learning" style="rounded=0;whiteSpace=wrap;html=1;fontSize=20;" vertex="1" parent="1">
          <mxGeometry x="880" y="660" width="200" height="40" as="geometry" />
        </mxCell>
        <mxCell id="EO1bN0PTtrRYNR4O2HtU-6" value="" style="sketch=0;outlineConnect=0;fontColor=#232F3E;gradientColor=none;fillColor=#01A88D;strokeColor=none;dashed=0;verticalLabelPosition=bottom;verticalAlign=top;align=center;html=1;fontSize=12;fontStyle=0;aspect=fixed;pointerEvents=1;shape=mxgraph.aws4.sagemaker_model;" vertex="1" parent="1">
          <mxGeometry x="951.4" y="600" width="56" height="56" as="geometry" />
        </mxCell>
        <mxCell id="EO1bN0PTtrRYNR4O2HtU-7" value="" style="shadow=0;dashed=0;html=1;strokeColor=none;fillColor=#4495D1;labelPosition=center;verticalLabelPosition=bottom;verticalAlign=top;align=center;outlineConnect=0;shape=mxgraph.veeam.magnifying_glass;pointerEvents=1;" vertex="1" parent="1">
          <mxGeometry x="953" y="398" width="55.2" height="54.4" as="geometry" />
        </mxCell>
        <mxCell id="EO1bN0PTtrRYNR4O2HtU-8" value="" style="image;aspect=fixed;html=1;points=[];align=center;fontSize=12;image=img/lib/azure2/analytics/Power_BI_Embedded.svg;" vertex="1" parent="1">
          <mxGeometry x="952.4" y="221.25" width="51" height="68" as="geometry" />
        </mxCell>
      </root>
    </mxGraphModel>
  </diagram>
</mxfile>
